<?xml version="1.0" encoding="UTF-8" standalone="no"?>
<!DOCTYPE svg PUBLIC "-//W3C//DTD SVG 20010904//EN"
              "http://www.w3.org/TR/2001/REC-SVG-20010904/DTD/svg10.dtd">

<svg xmlns="http://www.w3.org/2000/svg"
     width="287.907mm" height="46.3085mm"
     viewBox="0 0 1088 175">
  <path id="Sélection"
        fill="none" stroke="black" stroke-width="1"
        d="M 774.02,41.65
           C 778.38,40.74 784.14,40.50 787.26,44.39
             789.71,47.44 791.42,59.31 780.00,59.96
             776.73,60.14 772.89,60.03 770.43,57.57
             767.50,54.64 767.14,47.62 769.74,44.39
             771.07,42.73 772.20,42.45 774.02,41.65 Z
           M 864.00,41.53
           C 867.82,40.91 872.53,40.58 875.57,43.51
             878.64,46.47 881.18,59.26 869.00,59.96
             865.73,60.14 861.89,60.03 859.43,57.57
             855.51,53.65 855.14,44.45 864.00,41.53 Z
           M 16.82,45.00
           C 33.57,45.00 57.01,42.32 71.00,51.39
             85.55,60.81 88.88,77.87 87.16,94.00
             86.34,101.73 85.93,107.20 81.45,113.99
             78.74,118.09 75.21,121.03 71.00,123.53
             64.66,127.28 58.20,127.99 51.00,128.00
             51.00,128.00 17.02,128.00 17.02,128.00
             16.87,125.12 15.67,119.68 17.02,117.39
             18.58,114.78 21.63,114.72 22.89,110.90
             22.89,110.90 22.89,87.00 22.89,87.00
             22.89,87.00 22.89,67.00 22.89,67.00
             22.82,57.31 18.50,60.13 16.82,54.90
             15.95,52.95 16.89,47.49 16.82,45.00 Z
           M 288.81,45.00
           C 288.81,45.00 345.00,45.00 345.00,45.00
             345.00,45.00 345.00,67.00 345.00,67.00
             336.58,67.08 332.98,69.37 331.00,59.00
             331.00,59.00 313.00,59.00 313.00,59.00
             313.00,59.00 313.00,79.00 313.00,79.00
             321.59,79.00 326.15,81.02 331.00,73.00
             331.00,73.00 341.00,74.00 341.00,74.00
             341.00,77.39 341.42,92.62 340.40,94.69
             339.12,97.30 331.37,99.41 329.00,92.00
             329.00,92.00 313.00,92.00 313.00,92.00
             313.00,92.00 313.00,115.00 313.00,115.00
             316.10,115.00 326.62,115.35 328.87,114.40
             334.05,112.22 331.66,105.90 340.00,106.06
             341.39,106.09 343.30,106.28 344.43,107.17
             346.29,108.64 345.99,111.86 346.00,114.00
             346.00,114.00 346.00,128.00 346.00,128.00
             346.00,128.00 289.01,128.00 289.01,128.00
             288.76,124.99 287.47,119.94 289.01,117.39
             290.63,114.75 293.63,114.72 294.89,110.90
             294.89,110.90 294.89,86.00 294.89,86.00
             294.89,86.00 294.89,67.00 294.89,67.00
             294.82,57.34 290.62,60.22 288.81,54.90
             287.74,52.57 288.78,47.69 288.81,45.00 Z
           M 684.82,45.00
           C 684.82,45.00 715.00,45.00 715.00,45.00
             715.56,51.90 718.11,56.14 710.00,59.00
             710.00,59.00 721.11,97.00 721.11,97.00
             721.11,97.00 724.00,111.00 724.00,111.00
             724.04,96.99 732.81,73.35 737.00,59.00
             728.89,56.14 731.44,51.90 732.00,45.00
             732.00,45.00 761.20,45.00 761.20,45.00
             761.37,47.79 762.42,52.31 761.20,54.90
             759.33,60.15 755.55,56.83 752.00,67.00
             752.00,67.00 732.00,129.00 732.00,129.00
             732.00,129.00 713.00,129.00 713.00,129.00
             713.00,129.00 693.33,68.00 693.33,68.00
             693.33,68.00 689.59,60.37 689.59,60.37
             689.59,60.37 684.82,54.90 684.82,54.90
             684.82,54.90 684.82,45.00 684.82,45.00 Z
           M 153.06,78.00
           C 152.83,75.77 152.12,72.18 153.06,70.21
             154.36,67.75 157.38,66.93 159.28,64.61
             159.28,64.61 163.00,57.02 163.00,57.02
             166.73,51.16 170.94,52.00 177.00,52.00
             177.00,52.00 177.00,68.00 177.00,68.00
             177.00,68.00 194.00,68.00 194.00,68.00
             194.00,68.00 194.00,78.00 194.00,78.00
             194.00,78.00 177.00,78.00 177.00,78.00
             177.00,78.00 177.00,104.00 177.00,104.00
             177.04,107.35 177.05,111.97 180.28,113.99
             183.03,115.69 189.56,114.16 193.00,113.99
             193.00,113.99 196.00,124.00 196.00,124.00
             187.29,127.46 185.36,128.01 176.00,128.00
             171.25,127.99 166.94,128.28 163.22,124.72
             159.54,121.21 159.06,116.78 159.00,112.00
             159.00,112.00 159.00,78.00 159.00,78.00
             159.00,78.00 153.06,78.00 153.06,78.00 Z
           M 41.00,115.00
           C 48.06,114.99 56.45,114.92 61.89,109.79
             71.39,100.83 69.76,71.87 59.90,63.39
             54.21,58.50 47.94,59.00 41.00,59.00
             41.00,59.00 41.00,115.00 41.00,115.00 Z
           M 353.00,67.00
           C 353.00,67.00 375.00,66.00 375.00,66.00
             375.00,66.00 375.00,71.00 375.00,71.00
             382.44,67.19 384.85,66.99 393.00,67.00
             396.40,67.00 399.77,66.88 403.00,68.15
             406.70,69.60 409.71,72.42 411.43,76.00
             415.09,83.61 414.00,105.72 414.00,115.00
             423.53,117.44 419.71,126.35 417.57,127.43
             416.15,128.14 412.66,128.00 411.00,128.00
             411.00,128.00 390.01,128.00 390.01,128.00
             389.61,125.01 388.50,120.94 390.01,118.21
             391.43,115.69 394.16,114.97 395.40,111.90
             396.80,108.43 396.01,90.82 394.77,87.00
             391.95,78.29 381.67,80.41 378.60,84.28
             376.71,86.65 377.01,90.13 377.16,93.00
             377.16,93.00 377.16,111.90 377.16,111.90
             378.23,115.24 380.56,115.64 381.99,118.21
             383.60,121.13 382.55,124.90 381.99,128.00
             381.99,128.00 353.00,128.00 353.00,128.00
             351.82,121.39 350.14,117.01 358.00,115.00
             358.00,115.00 358.00,81.00 358.00,81.00
             350.07,78.59 352.14,73.55 353.00,67.00 Z
           M 482.05,128.00
           C 481.95,125.49 481.14,120.17 482.05,118.21
             483.51,115.37 486.60,115.07 487.84,110.96
             487.84,110.96 487.84,91.00 487.84,91.00
             488.00,88.57 488.21,85.36 486.98,83.21
             484.59,79.03 480.87,80.31 481.75,73.00
             481.91,71.69 482.18,69.65 483.02,68.59
             485.67,65.26 500.61,66.00 505.00,66.00
             505.00,66.00 505.00,72.00 505.00,72.00
             512.31,66.18 515.20,67.00 524.00,67.00
             524.00,67.00 524.00,84.00 524.00,84.00
             518.97,83.10 509.16,82.34 506.60,88.21
             505.65,90.39 505.99,100.97 506.00,104.00
             506.00,106.24 505.79,109.79 507.02,111.70
             509.51,115.56 516.33,114.16 518.64,119.13
             518.86,120.22 518.96,121.81 518.64,122.98
             518.49,128.35 515.32,127.97 511.00,128.00
             511.00,128.00 482.05,128.00 482.05,128.00 Z
           M 764.02,128.00
           C 763.77,125.11 762.66,120.73 764.02,118.21
             765.60,115.34 768.61,115.03 769.84,110.96
             769.84,110.96 769.84,91.00 769.84,91.00
             770.00,88.57 770.21,85.36 768.98,83.21
             766.85,79.49 762.56,79.67 763.46,73.00
             763.64,71.68 764.12,69.63 764.98,68.58
             767.92,65.03 783.22,66.00 788.00,66.00
             788.00,66.00 788.00,115.00 788.00,115.00
             797.53,117.44 793.71,126.35 791.57,127.43
             790.15,128.14 786.66,128.00 785.00,128.00
             785.00,128.00 764.02,128.00 764.02,128.00 Z
           M 853.03,128.00
           C 852.88,125.28 851.89,120.45 853.03,118.21
             854.54,115.38 857.61,115.05 858.84,110.96
             858.84,110.96 858.84,91.00 858.84,91.00
             859.00,88.57 859.21,85.36 857.98,83.21
             855.70,79.22 851.67,79.97 852.61,73.00
             852.79,71.70 853.18,69.62 854.01,68.58
             856.84,65.04 872.30,66.00 877.00,66.00
             877.00,66.00 877.00,107.00 877.00,107.00
             877.13,113.73 878.64,114.33 884.00,118.00
             884.00,118.00 883.00,128.00 883.00,128.00
             883.00,128.00 853.03,128.00 853.03,128.00 Z
           M 951.09,128.00
           C 950.98,125.70 950.39,119.94 951.09,118.21
             952.52,115.33 955.60,115.07 956.84,110.96
             956.84,110.96 956.84,91.00 956.84,91.00
             957.00,88.57 957.21,85.36 955.98,83.21
             953.54,78.94 950.13,80.62 950.87,73.00
             951.00,71.65 951.15,69.70 952.02,68.59
             954.63,65.26 969.64,66.00 974.00,66.00
             974.00,66.00 974.00,71.00 974.00,71.00
             984.01,65.52 1004.38,63.45 1010.03,76.00
             1012.99,82.56 1011.98,97.34 1012.00,105.00
             1012.00,107.43 1011.79,110.64 1013.02,112.79
             1014.47,115.32 1017.27,116.14 1018.19,119.10
             1019.27,121.44 1018.33,125.48 1018.19,128.00
             1018.19,128.00 999.00,128.00 999.00,128.00
             997.06,128.00 991.99,128.21 990.43,127.43
             988.29,126.35 984.47,117.44 994.00,115.00
             994.00,115.00 994.00,93.00 994.00,93.00
             993.99,90.40 994.11,87.41 992.83,85.06
             989.04,78.11 979.44,80.91 976.60,84.39
             974.69,86.73 975.01,90.15 975.16,93.00
             975.16,93.00 975.16,110.96 975.16,110.96
             976.39,115.05 979.46,115.38 980.97,118.21
             982.11,120.45 981.12,125.28 980.97,128.00
             980.97,128.00 951.09,128.00 951.09,128.00 Z
           M 111.00,88.00
           C 108.45,88.00 100.19,88.30 98.30,87.40
             94.03,85.37 93.99,74.67 97.31,71.81
             102.77,67.13 115.13,66.99 122.00,67.00
             125.64,67.01 128.42,66.94 132.00,67.93
             147.97,72.33 144.97,91.18 145.00,104.00
             145.00,106.34 144.78,109.67 146.02,111.70
             147.72,114.50 153.30,116.04 150.71,124.78
             149.53,128.74 143.41,128.91 140.00,128.99
             133.95,129.12 131.79,129.58 131.00,123.00
             128.84,124.86 127.68,126.00 125.00,127.20
             118.42,130.15 104.83,130.09 99.02,125.58
             88.82,117.69 89.93,101.44 101.01,96.19
             107.66,93.04 118.54,94.00 126.00,94.00
             125.99,81.81 124.37,80.01 112.00,80.00
             112.00,80.00 111.00,88.00 111.00,88.00 Z
           M 217.00,88.00
           C 214.45,88.00 206.19,88.30 204.30,87.40
             200.03,85.37 199.99,74.67 203.31,71.81
             208.77,67.13 221.13,66.99 228.00,67.00
             231.64,67.01 234.42,66.94 238.00,67.93
             253.97,72.33 250.97,91.18 251.00,104.00
             251.00,106.34 250.78,109.67 252.02,111.70
             253.72,114.50 259.30,116.04 256.71,124.78
             255.53,128.74 249.41,128.91 246.00,128.99
             239.95,129.12 237.79,129.58 237.00,123.00
             234.84,124.86 233.68,126.00 231.00,127.20
             224.42,130.15 210.83,130.09 205.02,125.58
             194.82,117.69 195.93,101.44 207.01,96.19
             213.66,93.04 224.54,94.00 232.00,94.00
             231.99,81.81 230.37,80.01 218.00,80.00
             218.00,80.00 217.00,88.00 217.00,88.00 Z
           M 472.00,111.00
           C 472.75,113.77 475.17,119.24 474.31,121.79
             471.98,128.69 455.89,129.03 450.00,129.00
             443.11,128.97 436.40,127.56 431.18,122.67
             420.53,112.68 420.42,87.07 429.53,76.09
             436.30,67.94 445.24,66.89 455.00,67.00
             470.10,67.18 474.72,73.90 476.16,88.00
             476.59,92.17 477.53,97.21 473.70,100.26
             471.15,102.30 467.09,101.99 464.00,102.00
             464.00,102.00 442.00,102.00 442.00,102.00
             442.48,104.35 442.91,106.85 444.14,108.96
             450.37,119.73 463.38,113.43 472.00,111.00 Z
           M 566.00,124.00
           C 556.82,127.83 543.11,128.38 535.14,121.47
             524.61,112.26 525.76,83.79 535.14,74.04
             544.69,64.04 556.94,67.24 569.00,68.03
             569.00,68.03 584.00,68.03 584.00,68.03
             584.00,68.03 584.00,119.00 584.00,119.00
             584.00,127.07 585.07,137.03 580.30,143.99
             572.76,155.00 554.70,154.13 543.00,152.08
             538.32,151.25 529.65,149.90 529.31,143.98
             529.17,141.46 530.62,134.56 532.70,132.99
             534.75,131.45 543.14,131.44 544.83,133.57
             545.98,135.04 545.90,137.24 546.00,139.00
             549.24,139.26 554.01,140.28 557.00,139.77
             565.04,138.40 565.94,130.64 566.00,124.00 Z
           M 813.00,110.00
           C 814.37,115.13 816.24,117.42 822.00,116.80
             825.04,116.47 830.51,114.21 828.83,110.21
             827.39,106.76 819.39,105.12 816.00,104.14
             805.81,101.20 797.17,96.05 798.19,84.00
             799.56,67.72 814.50,66.98 827.00,67.00
             830.73,67.01 839.66,67.25 842.40,69.85
             845.44,72.74 844.27,83.38 839.78,84.71
             837.77,85.30 832.43,85.21 830.68,84.01
             828.85,82.75 828.03,79.50 823.98,78.66
             820.59,77.96 814.75,80.24 816.94,84.07
             819.04,87.73 826.14,89.36 830.00,90.37
             839.41,92.83 846.88,95.96 847.81,107.00
             848.04,109.70 847.60,112.43 846.78,115.00
             843.26,126.00 834.58,128.95 824.00,128.77
             819.79,129.02 811.81,129.22 808.00,128.77
             808.00,128.77 798.00,126.00 798.00,126.00
             798.03,122.35 798.34,113.28 801.51,111.02
             803.57,109.56 810.31,110.00 813.00,110.00 Z
           M 908.00,67.47
           C 917.15,66.19 930.49,66.16 937.82,72.53
             949.83,82.99 948.16,112.11 936.70,122.47
             929.17,129.28 921.41,129.11 912.00,129.00
             890.12,128.74 886.79,113.11 887.00,95.00
             887.17,80.79 893.79,70.85 908.00,67.47 Z
           M 608.00,141.00
           C 611.55,138.31 614.88,134.72 615.26,130.00
             615.52,126.81 611.94,119.25 610.58,116.00
             610.58,116.00 597.32,85.13 597.32,85.13
             594.64,80.67 591.15,81.22 589.57,77.67
             589.04,76.47 588.97,74.32 589.06,73.02
             589.49,67.21 593.36,68.01 598.00,68.00
             598.00,68.00 619.00,68.00 619.00,68.00
             619.54,74.68 621.64,77.12 615.00,81.00
             615.00,81.00 625.00,110.00 625.00,110.00
             625.00,110.00 634.00,81.00 634.00,81.00
             626.65,78.40 628.94,74.95 629.00,68.00
             629.00,68.00 657.90,68.00 657.90,68.00
             658.02,70.26 658.61,76.11 657.90,77.79
             656.62,80.29 653.59,81.11 651.41,83.39
             649.51,85.38 648.38,88.47 647.28,91.00
             647.28,91.00 631.15,129.00 631.15,129.00
             627.66,137.14 623.87,148.40 615.00,151.99
             612.02,153.20 608.19,153.03 605.00,153.00
             602.29,152.96 599.57,152.90 597.02,151.85
             588.80,148.49 592.25,135.84 594.70,133.99
             597.20,132.10 604.82,132.49 606.57,135.31
             607.53,136.87 607.74,139.22 608.00,141.00 Z
           M 460.00,91.00
           C 459.73,85.64 458.69,80.11 452.00,80.11
             449.75,80.11 447.90,80.79 446.22,82.31
             443.66,84.65 442.96,87.83 442.00,91.00
             442.00,91.00 460.00,91.00 460.00,91.00 Z
           M 554.00,80.43
           C 551.50,81.44 550.41,81.77 548.72,84.11
             544.80,89.53 542.02,116.89 560.00,112.07
             561.71,111.61 563.93,110.85 565.01,109.35
             566.71,107.00 566.02,92.66 566.00,89.00
             565.98,86.68 566.24,83.58 564.40,81.85
             561.91,79.50 557.09,79.97 554.00,80.43 Z
           M 913.04,80.43
           C 910.20,81.65 909.22,82.17 907.69,85.04
             905.02,90.04 902.91,113.93 915.00,115.76
             921.37,116.72 924.65,112.62 926.10,107.00
             928.75,96.65 928.02,78.30 913.04,80.43 Z
           M 126.00,104.10
           C 126.00,104.10 122.00,104.10 122.00,104.10
             120.45,104.00 117.43,103.94 116.02,104.10
             108.06,106.39 110.32,118.08 120.98,115.61
             122.85,115.18 124.56,114.43 125.43,112.61
             126.21,110.96 126.00,106.01 126.00,104.10 Z
           M 232.00,104.10
           C 232.00,104.10 228.00,104.10 228.00,104.10
             226.45,104.00 223.43,103.94 222.02,104.10
             214.06,106.39 216.32,118.08 226.98,115.61
             228.85,115.18 230.56,114.43 231.43,112.61
             232.21,110.96 232.00,106.01 232.00,104.10 Z
           M 1028.05,111.74
           C 1031.81,110.81 1038.47,110.21 1041.72,112.74
             1046.01,116.07 1046.62,125.76 1038.98,128.85
             1025.62,134.27 1016.99,118.34 1028.05,111.74 Z" />
</svg>
